<svg width="20" height="20" viewBox="0 0 20 20" fill="none" xmlns="http://www.w3.org/2000/svg">
<path d="M10 11.6667C9.30558 11.6667 8.7153 11.4236 8.22919 10.9375C7.74308 10.4514 7.50002 9.86111 7.50002 9.16666V4.16666C7.50002 3.47222 7.74308 2.88194 8.22919 2.39583C8.7153 1.90972 9.30558 1.66666 10 1.66666C10.6945 1.66666 11.2847 1.90972 11.7709 2.39583C12.257 2.88194 12.5 3.47222 12.5 4.16666V9.16666C12.5 9.86111 12.257 10.4514 11.7709 10.9375C11.2847 11.4236 10.6945 11.6667 10 11.6667ZM9.16669 17.5V14.9375C7.72224 14.7431 6.5278 14.0972 5.58335 13C4.63891 11.9028 4.16669 10.625 4.16669 9.16666H5.83335C5.83335 10.3194 6.2396 11.3021 7.0521 12.1146C7.8646 12.9271 8.84724 13.3333 10 13.3333C11.1528 13.3333 12.1354 12.9271 12.9479 12.1146C13.7604 11.3021 14.1667 10.3194 14.1667 9.16666H15.8334C15.8334 10.625 15.3611 11.9028 14.4167 13C13.4722 14.0972 12.2778 14.7431 10.8334 14.9375V17.5H9.16669Z" fill="white"/>
</svg>
